<svg viewBox="0 0 273.13 142.68" xmlns="http://www.w3.org/2000/svg"><rect height="142.68" rx="71.34" width="254.88" x="18.25"/><path d="m107.74 33.55-43.86-25.31a13.32 13.32 0 0 0 -13.35 0l-43.86 25.31a13.37 13.37 0 0 0 -6.67 11.57v50.64a13.37 13.37 0 0 0 6.67 11.57l43.86 25.31a13.32 13.32 0 0 0 13.35 0l43.86-25.31a13.38 13.38 0 0 0 6.68-11.57v-50.64a13.38 13.38 0 0 0 -6.68-11.57zm-82.17 8.61h-1.25c-5.2 0-7.55 3-7.55 8.63v9.66c0 6-2.2 9.76-6.79 10.77 4.68 1.19 6.79 4.42 6.79 10.86v9.54c0 6 3.32 8.91 7.65 8.91h1.15v4h-1.26c-6.25 0-12.24-3.42-12.24-12.55v-9.98c0-4.68-.77-8.53-8.17-8.54v-4.33c7.09 0 8.17-3.58 8.17-8.55v-9.87c0-8.37 4.9-12.52 12.24-12.52h1.26zm25.43 50.55c-13.53 0-20.07-9.14-20.07-21.13 0-11.7 6.46-21.73 20.66-21.73 12.14 0 17.67 7.06 18.48 14.21h-12.07c-.55-3-2.28-5.7-6.75-5.7-5.89 0-7.89 5.58-7.89 12.8 0 6.55 1.67 13 8 13 4.82 0 6.17-3.5 6.68-5.83h12.11c-1.52 8.67-7.86 14.38-19.15 14.38zm41.45 0c-11.45 0-17.53-5.34-18.45-13.29h11.79c.69 3.61 3.21 5.12 7.12 5.12 3.66 0 5.35-1.28 5.35-3.68 0-2.72-1.83-3.74-8.36-5.3-12.19-3-14.62-7.41-14.62-13 0-6.93 5.1-12.74 16.6-12.74 12 0 16.84 6.07 17.41 12.58h-11.69c-.32-2.18-1.46-4.4-5.75-4.4-2.78 0-4.48 1-4.48 3.28s1.52 3.11 7.89 4.67c12.73 3.18 15.26 7.77 15.26 13.64 0 7.73-5.99 13.12-18.12 13.12z" fill="#fb297b"/><g fill="#fff"><path d="m136.57 59c-1 2.8-3 5-7.52 5-5.32 0-8.31-3.74-8.31-8.5a8.22 8.22 0 0 1 8.41-8.5c4.65 0 6.79 2.48 7.48 5.15h-1.91c-.82-1.93-2.25-3.54-5.6-3.54-4 0-6.42 2.9-6.42 6.9s2.48 6.95 6.45 6.95c3.29 0 4.59-1.44 5.55-3.42z"/><path d="m154 55.47a8.53 8.53 0 1 1 -17.05 0 8.53 8.53 0 0 1 17.05 0zm-15.09-.08c0 3.64 2.31 7 6.61 7s6.52-3.12 6.52-6.93c0-3.53-2.34-6.92-6.66-6.92-3.97.05-6.44 3.19-6.44 6.85z"/><path d="m155.69 47.33h6.55c5.22 0 8.32 3.4 8.32 7.93a8 8 0 0 1 -8.36 8.44h-6.51zm1.85 14.78h4.21c4.66 0 6.85-3 6.85-6.8 0-4-2.69-6.39-6.63-6.4h-4.43z"/><path d="m184.09 55.88h-10v6.22h11l-.27 1.6h-12.6v-16.37h12.38v1.6h-10.53v5.34h10z"/><path d="m194.5 63.7-5.2-16.37h1.95c1.28 4.1 4 12.56 4.34 14.53.42-2.13 3.26-10.52 4.61-14.53h1.9c1.2 3.69 4.14 12.85 4.47 14.48.53-2.3 3.34-10.61 4.66-14.48h1.87l-5.53 16.37h-2c-1.21-3.75-4.09-12.57-4.46-14.38-.39 1.89-3.17 10.16-4.58 14.38z"/><path d="m215.79 47.33v16.37h-1.79v-16.37z"/><path d="m222.85 49h-6.37v-1.67h14.61v1.67h-6.37v14.7h-1.87z"/><path d="m231.78 47.33h1.84v6.75h10.52v-6.75h1.86v16.37h-1.84v-8h-10.54v8h-1.84z"/><path d="m126.79 85.58c.75 2.31 2.54 3.87 6.76 3.87 4 0 5.37-1.36 5.37-3.13s-1.18-3-6.6-3.9c-8-1.36-9.56-3.92-9.56-7.16 0-4.61 4.42-7.05 10-7.05 8.1 0 10.21 4.19 10.48 6.86h-5.06c-.39-1.33-1.26-3.11-5.57-3.11-3 0-4.67 1-4.67 2.81 0 1.57 1 2.45 5.8 3.29 9 1.58 10.4 4.32 10.4 7.75 0 4-3.2 7.39-11 7.39-7.25 0-10.64-3.26-11.38-7.62z"/><path d="m152.87 86.67-2.42 6h-5.2l9.88-24h6.39l10.35 24h-5.46l-2.55-6zm9.53-4.09c-2.46-5.87-3.64-8.78-4.21-10.55-.52 1.72-1.91 5.52-3.91 10.55z"/><path d="m173.93 92.71v-24h6c6.31 9.4 10.62 15.12 12.08 17.85h.07c-.23-2.72-.2-7-.2-10.92v-6.94h4.65v24h-5.63c-2.68-4-10.92-16.23-12.44-19h-.07c.19 3 .19 6.42.19 10.67v8.32z"/><path d="m207.66 72.77h-8.66v-4.07h22.39v4.07h-8.66v19.94h-5.05z"/><path d="m225.39 86.67-2.42 6h-5.2l9.88-24h6.35l10.35 24h-5.46l-2.55-6zm9.53-4.09c-2.46-5.87-3.64-8.78-4.21-10.55-.52 1.72-1.91 5.52-3.91 10.55z"/></g></svg>